# AST/ASF file generated using VICON BodyLanguage
# -----------------------------------------------
:version 1.10
:name VICON
:units
  mass 1.0
  length 0.45
  angle deg
:documentation
   .ast/.asf automatically generated from VICON data using
   VICON BodyBuilder and BodyLanguage model FoxedUp or BRILLIANT.MOD
:root
   order TX TY TZ RX RY RZ
   axis XYZ
   position 0 0 0  
   orientation 0 0 0 
:bonedata
  begin
     id 1 
     name lhipjoint
     direction 0.567725 -0.736092 0.368589 
     length 2.42353 
     axis 0 0 0  XYZ
  end
  begin
     id 2 
     name lfemur
     direction 0.34202 -0.939693 0  
     length 7.24894  
     axis 0 0 20  XYZ
    dof rx ry rz
    limits (-160.0 20.0)
           (-70.0 70.0)
           (-60.0 70.0)
  end
  begin
     id 3 
     name ltibia
     direction 0.34202 -0.939693 0   
     length 7.6997   
     axis 0 0 20   XYZ
    dof rx
    limits (-10.0 170.0)
  end
  begin
     id 4 
     name lfoot
     direction 0.100767 -0.276854 0.955614   
     length 2.37556   
     axis -90 7.62852e-016 20   XYZ
    dof rx rz
    limits (-45.0 90.0)
           (-70.0 20.0)
  end
  begin
     id 5 
     name ltoes
     direction 1.53592e-011 -4.21894e-011 1   
     length 1.18363   
     axis -90 7.62852e-016 20   XYZ
    dof rx
    limits (-90.0 20.0)
  end
  begin
     id 6 
     name rhipjoint
     direction -0.556459 -0.742938 0.372017   
     length 2.4012  
     axis 0 0 0  XYZ 
  end
  begin
     id 7 
     name rfemur
     direction -0.34202 -0.939693 0   
     length 7.5119   
     axis 0 0 -20   XYZ
    dof rx ry rz
    limits (-160.0 20.0)
           (-70.0 70.0)
           (-70.0 60.0)
  end
  begin
     id 8 
     name rtibia
     direction -0.34202 -0.939693 0   
     length 7.50155   
     axis 0 0 -20   XYZ
    dof rx
    limits (-10.0 170.0)
 end
 begin
     id 9 
     name rfoot
     direction -0.118427 -0.325376 0.938139   
     length 2.32487  
     axis -90 -7.62852e-016 -20   XYZ
    dof rx rz
    limits (-45.0 90.0)
           (-20.0 70.0)
  end
  begin
     id 10 
     name rtoes
     direction -1.53525e-011 -4.21868e-011 1   
     length 1.15233   
     axis -90 -7.62852e-016 -20   XYZ
    dof rx
    limits (-90.0 20.0)
  end
  begin
     id 11 
     name lowerback
     direction 0.0287568 0.999577 -0.00434502   
     length 2.15243   
     axis 0 0 0   XYZ
    dof rx ry rz
    limits (-20.0 45.0)
           (-30.0 30.0)
           (-30.0 30.0)
  end
  begin
     id 12 
     name upperback
     direction 0.0294009 0.99956 0.00404628   
     length 2.15427   
     axis 0 0 0   XYZ
    dof rx ry rz
    limits (-20.0 45.0)
           (-30.0 30.0)
           (-30.0 30.0)
  end
  begin
     id 13 
     name thorax
     direction 0.0151014 0.999868 0.0059419   
     length 2.14898   
     axis 0 0 0   XYZ
    dof rx ry rz
    limits (-20.0 45.0)
           (-30.0 30.0)
           (-30.0 30.0)
  end
  begin
     id 14 
     name lowerneck
     direction -0.0249197 0.989906 0.139515   
     length 1.6861   
     axis 0 0 0   XYZ
    dof rx ry rz
    limits (-20.0 45.0)
           (-30.0 30.0)
           (-30.0 30.0)
  end
  begin
     id 15 
     name upperneck
     direction 0.0438463 0.988795 -0.142693   
     length 1.71276   
     axis 0 0 0   XYZ
    dof rx ry rz
    limits (-20.0 45.0)
           (-30.0 30.0)
           (-30.0 30.0)
  end
  begin
     id 16
     name head
     direction 0.0148499 0.997845 -0.0639186  
     length 1.7209  
     axis 0 0 0   XYZ
    dof rx ry rz
    limits (-20.0 45.0)
           (-30.0 30.0)
           (-30.0 30.0)
  end
  begin
     id 17 
     name lclavicle
     direction 0.940298 0.323464 -0.105876  
     length 3.9048  
     axis 0 0 0   XYZ
    dof ry rz
    limits (-20.0 10.0)
           (0.0 20.0)
  end
  begin
     id 18 
     name lhumerus
     direction 1 -4.48954e-011 -4.9675e-028   
     length 4.6851   
     axis 180 -30 -90   XYZ
    dof rx ry rz
    limits (-60.0 90.0)
           (-90.0 90.0)
           (-90.0 90.0)
  end
  begin
     id 19
     name lradius
     direction 1 -4.48992e-011 -1.03359e-026   
     length 3.39626   
     axis 180 -30 -90   XYZ
    dof rx
    limits (-10.0 170.0)
  end
  begin
     id 20
     name lwrist
     direction 1 -4.48906e-011 -1.67336e-026   
     length 1.69813   
     axis 9.90442e-015 90 90   XYZ
    dof ry
    limits (-180.0 0.0)
 end
  begin
     id 21 
     name lhand
     direction 1 -4.49006e-011 -3.34673e-026   
     length 0.486078   
     axis 2.1355e-014 90 90   XYZ
    dof rx rz
    limits (-90.0 90.0)
           (-45.0 45.0)
  end
  begin
     id 22 
     name lfingers
     direction 1 -4.48992e-011 -6.69345e-026   
     length 0.391889   
     axis 4.27099e-014 90 90   XYZ
    dof rx
    limits (0.0 90.0)
  end
  begin
     id 23
     name lthumb
     direction 0.707107 -6.34926e-011 0.707107   
     length 0.562676   
     axis -90 45 2.85299e-015   XYZ
    dof rx rz
    limits (-45.0 45.0)
           (-45.0 45.0)
  end
  begin
     id 24 
     name rclavicle
     direction -0.882459 0.414895 -0.221648   
     length 3.44646  
     axis 0 0 0   XYZ 
    dof ry rz
    limits (-10.0 20.0)
           (-20.0 0.0)
  end
  begin
     id 25 
     name rhumerus
     direction -1 -4.48962e-011 -2.37984e-027  
     length 5.55576   
     axis 180 30 90   XYZ
    dof rx ry rz
    limits (-90.0 60.0)
           (-90.0 90.0)
           (-90.0 90.0)
  end
  begin
     id 26 
     name rradius
     direction -1 -4.48982e-011 -6.86791e-027   
     length 3.32774   
     axis 180 30 90   XYZ
    dof rx
    limits (-10.0 170.0)
  end
  begin
     id 27 
     name rwrist
     direction -1 -4.48961e-011 -1.67336e-026   
     length 1.66387   
     axis 9.90442e-015 -90 -90   XYZ
    dof ry
    limits (-180.0 0.0)
  end
  begin
     id 28
     name rhand
     direction -1 -4.4897e-011 -3.34673e-026   
     length 0.507628   
     axis 2.1355e-014 -90 -90   XYZ
    dof rx rz
    limits (-90.0 90.0)
           (-45.0 45.0)
  end
  begin
     id 29
     name rfingers
     direction -1 -4.48854e-011 -6.69345e-026   
     length 0.409263   
     axis 4.27099e-014 -90 -90   XYZ
    dof rx
    limits (0.0 90.0)
  end
  begin
     id 30
     name rthumb
     direction -0.707107 -6.34913e-011 0.707107   
     length 0.587622   
     axis -90 -45 -2.85299e-015   XYZ
    dof rx rz
    limits (-45.0 45.0)
           (-45.0 45.0)
  end
:hierarchy
  begin
    root lhipjoint rhipjoint lowerback
    lhipjoint lfemur
    lfemur ltibia
    ltibia lfoot
    lfoot ltoes
    rhipjoint rfemur
    rfemur rtibia
    rtibia rfoot
    rfoot rtoes
    lowerback upperback
    upperback thorax
    thorax lowerneck lclavicle rclavicle
    lowerneck upperneck
    upperneck head
    lclavicle lhumerus
    lhumerus lradius
    lradius lwrist
    lwrist lhand lthumb
    lhand lfingers
    rclavicle rhumerus
    rhumerus rradius
    rradius rwrist
    rwrist rhand rthumb
    rhand rfingers
  end

#!OML:ASF E:\motion texture\Top Level 1\Subject 1\Session 1\male.ASF
:FULLY-SPECIFIED
:DEGREES
64
root 43.5742 17.5256 4.51325 107.465 -82.5541 -98.8909
lowerback -0.796972 1.93914 3.51115
upperback -0.776497 2.50983 3.41411
thorax -0.351433 1.21904 1.54874
lowerneck -17.5544 -0.535243 -7.20077
upperneck 12.5706 0.137734 5.61331
head 6.6956 0.213352 3.01173
rclavicle -6.48535e-015 -1.82882e-014
rhumerus -27.6318 12.7468 -85.2556
rradius 45.7841
rwrist 11.4166
rhand -14.8973 -25.2141
rfingers 7.12502
rthumb 11.2638 -54.8917
lclavicle -6.48535e-015 -1.82882e-014
lhumerus -33.0358 7.483 89.0194
lradius 45.0224
lwrist -14.8016
lhand -13.4004 23.4079
lfingers 7.12502
lthumb 12.7072 53.0012
rfemur -4.47061 1.84224 32.0146
rtibia 16.7031
rfoot -18.2907 -11.6172
rtoes 14.1184
lfemur -37.8653 1.76023 -7.8818
ltibia 42.2946
lfoot -8.30617 5.20069
ltoes -13.5966
65
root 43.5082 17.5181 4.50876 108.155 -82.5297 -99.453
lowerback -0.814787 1.96596 3.50869
upperback -0.784043 2.54605 3.36477
thorax -0.347109 1.23756 1.50015
lowerneck -17.5436 -0.525686 -7.22288
upperneck 12.4415 0.155482 5.63546
head 6.65087 0.223974 3.02247
rclavicle 7.67806e-015 1.90833e-014
rhumerus -27.3085 13.4063 -85.3975
rradius 46.6563
rwrist 11.5555
rhand -15.0357 -25.095
rfingers 7.12502
rthumb 11.1303 -54.7799
lclavicle 7.67806e-015 1.90833e-014
lhumerus -32.917 7.04339 89.3221
lradius 45.7712
lwrist -14.5744
lhand -13.4659 23.4225
lfingers 7.12502
lthumb 12.6441 53.0198
rfemur -4.29207 1.87836 32.036
rtibia 16.5647
rfoot -18.4366 -11.6033
rtoes 14.1803
lfemur -38.1404 1.76411 -7.71253
ltibia 41.1399
lfoot -8.04506 5.31672
ltoes -13.2877
66
root 43.4401 17.5099 4.50469 108.831 -82.5081 -99.9965
lowerback -0.835811 1.99138 3.50126
upperback -0.796082 2.58046 3.31461
thorax -0.345721 1.25515 1.45353
lowerneck -17.5327 -0.516355 -7.24541
upperneck 12.3137 0.172624 5.65967
head 6.60658 0.234437 3.03389
rclavicle 1.43373e-014 1.19271e-014
rhumerus -26.9723 14.0584 -85.5252
rradius 47.5312
rwrist 11.7053
rhand -15.1779 -24.9697
rfingers 7.12502
rthumb 10.9932 -54.6619
lclavicle 1.43373e-014 1.19271e-014
lhumerus -32.7898 6.59979 89.6198
lradius 46.513
lwrist -14.369
lhand -13.5316 23.437
lfingers 7.12502
lthumb 12.5807 53.0382
rfemur -4.11487 1.91226 32.0518
rtibia 16.4333
rfoot -18.5852 -11.592
rtoes 14.2317
lfemur -38.3912 1.74935 -7.53553
ltibia 39.9433
lfoot -7.78307 5.41714
ltoes -12.9555
67
root 43.3699 17.5013 4.50097 109.51 -82.4893 -100.541
lowerback -0.85941 2.01648 3.4873
upperback -0.811267 2.61453 3.2634
thorax -0.346308 1.27258 1.40951
lowerneck -17.5223 -0.508025 -7.26709
upperneck 12.1856 0.18812 5.68448
head 6.56247 0.244192 3.04519
rclavicle -7.10655e-015 -1.13307e-014
rhumerus -26.6246 14.7015 -85.6385
rradius 48.4111
rwrist 11.8625
rhand -15.326 -24.8404
rfingers 7.12502
rthumb 10.8504 -54.5401
lclavicle -7.10655e-015 -1.13307e-014
lhumerus -32.6517 6.15034 89.9128
lradius 47.2463
lwrist -14.1841
lhand -13.5966 23.4459
lfingers 7.12502
lthumb 12.518 53.051
rfemur -3.93726 1.94715 32.0619
rtibia 16.3102
rfoot -18.7353 -11.5845
rtoes 14.2678
lfemur -38.6166 1.71635 -7.35088
ltibia 38.7165
lfoot -7.51795 5.50624
ltoes -12.6046
68
root 43.2975 17.4921 4.49772 110.173 -82.4742 -101.066
lowerback -0.884784 2.04024 3.46815
upperback -0.829777 2.64692 3.21096
thorax -0.349447 1.28917 1.36713
lowerneck -17.5117 -0.500413 -7.28738
upperneck 12.0579 0.202289 5.70912
head 6.51858 0.253333 3.05605
rclavicle 1.7667e-014 4.31363e-014
rhumerus -26.2645 15.3356 -85.7373
rradius 49.2926
rwrist 12.0281
rhand -15.4805 -24.7124
rfingers 7.12502
rthumb 10.7013 -54.4199
lclavicle 1.7667e-014 4.31363e-014
lhumerus -32.5029 5.695 90.2004
lradius 47.9703
lwrist -14.0189
lhand -13.6616 23.4459
lfingers 7.12502
lthumb 12.4554 53.0547
rfemur -3.75963 1.97941 32.0655
rtibia 16.1975
rfoot -18.8878 -11.5801
rtoes 14.292
lfemur -38.8194 1.66131 -7.1596
ltibia 37.4724
lfoot -7.24752 5.59094
ltoes -12.2517
69
root 43.2229 17.4822 4.49499 110.825 -82.4617 -101.58
lowerback -0.912561 2.0639 3.44431
upperback -0.85118 2.67922 3.15801
thorax -0.354359 1.3057 1.32689
lowerneck -17.5009 -0.494077 -7.30836
upperneck 11.9315 0.214478 5.73598
head 6.47519 0.261644 3.06756
rclavicle 3.27995e-015 1.39149e-014
rhumerus -25.8941 15.9589 -85.8205
rradius 50.1778
rwrist 12.1984
rhand -15.6412 -24.5837
rfingers 7.12502
rthumb 10.5463 -54.2991
lclavicle 3.27995e-015 1.39149e-014
lhumerus -32.3422 5.23204 90.4841
lradius 48.6839
lwrist -13.8729
lhand -13.7302 23.4498
lfingers 7.12502
lthumb 12.3892 53.0627
rfemur -3.58159 2.00978 32.0637
rtibia 16.0962
rfoot -19.0414 -11.5783
rtoes 14.2999
lfemur -39.0006 1.58407 -6.96054
ltibia 36.2243
lfoot -6.96996 5.67992
ltoes -11.9093
70
root 43.1462 17.4719 4.49273 111.456 -82.4512 -102.071
lowerback -0.942368 2.08704 3.41665
upperback -0.875004 2.71084 3.1047
thorax -0.360743 1.32188 1.28845
lowerneck -17.4904 -0.488837 -7.32864
upperneck 11.8053 0.224928 5.76344
head 6.43215 0.26918 3.07898
rclavicle -1.09083e-014 -3.97569e-015
rhumerus -25.5119 16.5714 -85.8881
rradius 51.0648
rwrist 12.3726
rhand -15.8077 -24.4535
rfingers 7.12502
rthumb 10.3857 -54.177
lclavicle -1.09083e-014 -3.97569e-015
lhumerus -32.1676 4.76088 90.7633
lradius 49.387
lwrist -13.7461
lhand -13.7968 23.447
lfingers 7.12502
lthumb 12.3251 53.0637
rfemur -3.40498 2.03835 32.0575
rtibia 16.0091
rfoot -19.1957 -11.5797
rtoes 14.2887
lfemur -39.1638 1.48442 -6.75344
ltibia 34.9857
lfoot -6.68557 5.77629
ltoes -11.5871
